<svg xmlns="http://www.w3.org/2000/svg" width="199.002" height="75" viewBox="0 0 199.002 75">
  <g id="Grupo_3136" data-name="Grupo 3136" transform="translate(-775.998 -83)">
    <g id="Grupo_3087" data-name="Grupo 3087" transform="translate(775.998 83)">
      <path id="Trazado_7755" data-name="Trazado 7755" d="M.53,18.46V55.889l.032.018a37.476,37.476,0,0,0,37.375,0h.03V18.46Z" transform="translate(0.405 14.101)" fill="#04377c"/>
      <path id="Trazado_7756" data-name="Trazado 7756" d="M18.72,6.558h1.871V4.217H22.93V2.348H20.591V0H18.72V2.348H16.376v1.87H18.72ZM30.885,9.819a8.4,8.4,0,0,0-1.8.192,8.427,8.427,0,0,0-9.433-1.33,8.41,8.41,0,0,0-9.423,1.33A8.42,8.42,0,0,0,2.905,24.6,36.68,36.68,0,0,1,7.25,22.763a4.675,4.675,0,0,1,.661-9.172,8.416,8.416,0,0,0,1.854,8.392,36.757,36.757,0,0,1,5.771-1.088l.009-.005a4.678,4.678,0,0,1-4.316-4.658,4.609,4.609,0,0,1,.259-1.52,4.663,4.663,0,0,1,4.419-3.159,4.591,4.591,0,0,1,.469.025,4.544,4.544,0,0,1,1.406.369v8.768c.6-.032,1.21-.055,1.826-.055.646,0,1.281.023,1.917.058V11.945a4.506,4.506,0,0,1,1.406-.369,4.636,4.636,0,0,1,2.355.372,4.676,4.676,0,0,1-1.593,8.946H23.7A37.283,37.283,0,0,1,29.524,22a8.375,8.375,0,0,0,1.871-8.41,4.672,4.672,0,0,1,.616,9.183,38.09,38.09,0,0,1,4.36,1.852A8.417,8.417,0,0,0,30.885,9.819M4.187,27.086,6.3,31.337a30.012,30.012,0,0,1,26.753-.065l2.074-4.12a34.693,34.693,0,0,0-30.938-.065" fill="#fea929"/>
      <path id="Trazado_7757" data-name="Trazado 7757" d="M10.676,21.882a1.934,1.934,0,0,0-2.7,0L3.714,26.013H14.945Zm14.981,0a1.943,1.943,0,0,0-2.7,0l-4.265,4.131H29.918Zm0,8.842a1.946,1.946,0,0,0-2.7,0l-4.265,4.133H29.918Zm-14.981,0a1.937,1.937,0,0,0-2.7,0L3.714,34.857H14.945Zm4.692,17.7-4.262,4.129H22.337L18.07,48.427a1.944,1.944,0,0,0-2.7,0m-4.62-8.858a1.936,1.936,0,0,0-2.7,0L3.786,43.7H15.015Zm12.275,0L18.76,43.7H29.989l-4.263-4.134a1.94,1.94,0,0,0-2.7,0" transform="translate(2.837 16.297)" fill="#fff"/>
      <path id="Trazado_7758" data-name="Trazado 7758" d="M40.425,27.354l-1.018.2c-.213.039-.383.25-.383.718V32.34a.515.515,0,0,1-.383.482,12.524,12.524,0,0,1-4.258.658c-4.516,0-7.311-2.605-7.311-7.114,0-4.879,3.138-7.888,8.117-7.888a11.951,11.951,0,0,1,3.877.616.373.373,0,0,1,.192.422L38.855,21c-.085.337-.358.3-.614.19a7.55,7.55,0,0,0-2.755-.529c-3.353,0-4.814,2.244-4.814,5.4,0,3.032,1.208,5.466,3.819,5.466a3.246,3.246,0,0,0,.8-.125.427.427,0,0,0,.34-.489V28.271c0-.467-.169-.7-.383-.718l-1.441-.2a.326.326,0,0,1-.3-.358v-.63a.3.3,0,0,1,.321-.323H40.4a.29.29,0,0,1,.317.323V27a.334.334,0,0,1-.295.358" transform="translate(20.68 14.115)" fill="#20201f"/>
      <path id="Trazado_7759" data-name="Trazado 7759" d="M40.982,32.066c-3.5,0-5.427-2.48-5.427-5.681,0-3.242,2.182-6,5.639-6,3.492,0,5.422,2.441,5.422,5.639,0,3.242-2.18,6.039-5.634,6.039m.1-9.98c-1.718,0-2.2,1.67-2.2,3.94,0,3.538,1.252,4.346,2.2,4.346,1.716,0,2.2-1.718,2.2-3.988,0-3.537-1.252-4.3-2.2-4.3" transform="translate(27.16 15.572)" fill="#20201f"/>
      <path id="Trazado_7760" data-name="Trazado 7760" d="M47.46,33.856a11.755,11.755,0,0,1-3.325-.452.468.468,0,0,1-.406-.482V20.348c0-.3-.1-.651-.445-.716l-.764-.131a.294.294,0,0,1-.273-.312V18.57a.289.289,0,0,1,.293-.316l3.882-.34a.317.317,0,0,1,.358.275v5.826H46.8A4.4,4.4,0,0,1,49.916,22.6c2.418,0,4.24,1.845,4.24,5.064,0,4.219-2.82,6.193-6.7,6.193m1.122-9.008a1.66,1.66,0,0,0-1.8,1.628v4.177c0,.848.571,1.4,1.656,1.4,1.946,0,2.5-2.1,2.5-3.709,0-1.8-.723-3.494-2.357-3.494" transform="translate(32.272 13.681)" fill="#20201f"/>
      <path id="Trazado_7761" data-name="Trazado 7761" d="M55.782,33.485a5.387,5.387,0,0,1-1.84.4c-2.312,0-3.014-1.138-3.014-2.856V24.883c0-.3-.1-.658-.448-.723l-.757-.129a.3.3,0,0,1-.28-.317V23.1a.3.3,0,0,1,.3-.323l3.879-.337a.32.32,0,0,1,.36.277v8.138c0,.718.3,1.125.931,1.125a1.587,1.587,0,0,0,.619-.127c.041-.021.316-.085.358.295l.083.977a.337.337,0,0,1-.19.36M52.413,21.11a1.56,1.56,0,0,1-1.782-1.572,1.609,1.609,0,0,1,1.843-1.589c1.229,0,1.782.639,1.782,1.549,0,1.037-.741,1.612-1.843,1.612" transform="translate(37.769 13.711)" fill="#20201f"/>
      <path id="Trazado_7762" data-name="Trazado 7762" d="M58.527,27.2a13.709,13.709,0,0,1-1.423-.049c-.173-.016-.295.025-.275.236.083,1.57,1.736,2.484,3.134,2.484a4.859,4.859,0,0,0,2.436-.617.31.31,0,0,1,.452.192l.273,1.312a.376.376,0,0,1-.191.42,7.218,7.218,0,0,1-3.455.848c-3.919,0-5.911-2.325-5.911-5.823a5.68,5.68,0,0,1,5.718-5.812c2.039,0,4.113,1.147,4.113,3.415,0,2.436-2.757,3.394-4.872,3.394M58.9,22.02c-1.58,0-2.242,1.909-2.18,3.2,0,.212.048.254.254.277.235.019.531.041.785.041,1.341,0,2.692-.462,2.692-1.949a1.547,1.547,0,0,0-1.55-1.57" transform="translate(40.919 15.572)" fill="#20201f"/>
      <path id="Trazado_7763" data-name="Trazado 7763" d="M68.256,23.211a.326.326,0,0,1-.429.212,4.8,4.8,0,0,0-1.249-.168,1.838,1.838,0,0,0-1.968,1.783v4.635c0,.427.169.639.36.661l1.27.169a.292.292,0,0,1,.272.312v.577a.267.267,0,0,1-.291.3H60.369a.27.27,0,0,1-.3-.3v-.577a.314.314,0,0,1,.277-.312l.843-.169c.2-.046.362-.235.362-.661V22.982c0-.3-.1-.681-.441-.723l-.975-.148a.3.3,0,0,1-.275-.319V21.2a.3.3,0,0,1,.3-.323l3.662-.337c.238-.019.321.152.34.362l.219,1.741h.078a3.8,3.8,0,0,1,3.161-2.207,2.657,2.657,0,0,1,.954.152c.148.062.168.187.127.422Z" transform="translate(45.729 15.609)" fill="#20201f"/>
      <path id="Trazado_7764" data-name="Trazado 7764" d="M78.39,31.695H72.961a.271.271,0,0,1-.3-.3v-.575a.32.32,0,0,1,.275-.314l.848-.169c.189-.046.362-.233.362-.661V24.849a1.973,1.973,0,0,0-2.037-2.228,1.922,1.922,0,0,0-2.057,1.926v5.126c0,.429.173.616.358.661l.85.169a.317.317,0,0,1,.277.314v.575a.272.272,0,0,1-.3.3H65.815a.269.269,0,0,1-.293-.3v-.575A.316.316,0,0,1,65.8,30.5l.847-.169c.19-.046.358-.233.358-.661v-6.69c0-.3-.1-.658-.439-.723l-.937-.148a.3.3,0,0,1-.273-.319V21.2a.3.3,0,0,1,.293-.323l3.669-.337c.235-.019.342.109.363.323l.123,1.206h.088a5.111,5.111,0,0,1,3.683-1.633,3.318,3.318,0,0,1,3.628,3.35v5.888c0,.429.169.616.362.661l.845.169a.313.313,0,0,1,.275.314v.575a.269.269,0,0,1-.293.3" transform="translate(49.922 15.611)" fill="#20201f"/>
      <path id="Trazado_7765" data-name="Trazado 7765" d="M78.791,32.066c-3.5,0-5.424-2.48-5.424-5.681,0-3.242,2.184-6,5.639-6,3.494,0,5.422,2.441,5.422,5.639,0,3.242-2.185,6.039-5.637,6.039m.108-9.98c-1.72,0-2.2,1.67-2.2,3.94,0,3.538,1.247,4.346,2.2,4.346,1.713,0,2.2-1.718,2.2-3.988,0-3.537-1.252-4.3-2.2-4.3" transform="translate(56.043 15.572)" fill="#20201f"/>
      <path id="Trazado_7766" data-name="Trazado 7766" d="M38.6,44.776l-3.644.342a.307.307,0,0,1-.36-.317l-.148-1.339h-.065a4.4,4.4,0,0,1-3.265,1.656c-2.434,0-4.11-2.168-4.11-5.158,0-3.746,2.2-6.117,6.1-6.117a6.911,6.911,0,0,1,1.087.081V31.616c0-.295-.109-.656-.446-.716l-.766-.132a.3.3,0,0,1-.275-.317v-.614a.292.292,0,0,1,.3-.317l3.877-.339a.329.329,0,0,1,.362.3v13.2c0,.3.108.658.443.723l.935.146a.3.3,0,0,1,.275.321v.591a.3.3,0,0,1-.3.319M34.2,37.04c0-.848-.554-1.4-1.595-1.4-1.864,0-2.392,2.009-2.392,3.627,0,1.459.466,3.6,2.222,3.6A1.637,1.637,0,0,0,34.2,41.236Z" transform="translate(20.633 22.287)" fill="#20201f"/>
      <path id="Trazado_7767" data-name="Trazado 7767" d="M39.117,38.458A14.108,14.108,0,0,1,37.7,38.41c-.169-.018-.3.021-.275.235.085,1.57,1.741,2.48,3.14,2.48A4.987,4.987,0,0,0,43,40.513a.3.3,0,0,1,.444.192l.272,1.311a.375.375,0,0,1-.189.422,7.215,7.215,0,0,1-3.455.85c-3.919,0-5.913-2.334-5.913-5.828a5.677,5.677,0,0,1,5.726-5.807C41.917,31.653,44,32.8,44,35.061c0,2.441-2.753,3.4-4.879,3.4m.385-5.177c-1.591,0-2.247,1.912-2.182,3.2,0,.213.041.259.254.28.231.016.529.039.787.039,1.333,0,2.688-.464,2.688-1.946A1.548,1.548,0,0,0,39.5,33.281" transform="translate(26.094 24.179)" fill="#20201f"/>
      <path id="Trazado_7768" data-name="Trazado 7768" d="M53.65,44.025a10.025,10.025,0,0,1-3.5.721,7.341,7.341,0,0,1-7.715-7.477c0-4.706,3.436-7.526,8.031-7.526a11.913,11.913,0,0,1,2.736.339.416.416,0,0,1,.275.386v3.344a.271.271,0,0,1-.3.3h-.871a.318.318,0,0,1-.317-.28l-.21-1.166c-.131-.677-.677-.995-1.843-.995-2.905,0-3.9,2.543-3.9,5.128,0,3.053,1.42,5.785,4.916,5.785a5.712,5.712,0,0,0,2.161-.466.325.325,0,0,1,.448.229l.235,1.233a.379.379,0,0,1-.152.444" transform="translate(32.418 22.72)" fill="#20201f"/>
      <path id="Trazado_7769" data-name="Trazado 7769" d="M60.108,42.882a8.01,8.01,0,0,1-2.161.317,1.521,1.521,0,0,1-1.76-1.468H56.1A3.94,3.94,0,0,1,52.86,43.2a2.942,2.942,0,0,1-3.2-3.055c0-3.032,2.859-3.986,6.061-3.986.164,0,.21-.19.21-.293v-.385c0-1.312-1.041-1.734-2.436-1.734a4.823,4.823,0,0,0-2.309.568c-.217.109-.427.125-.469-.146l-.254-1.4c-.041-.213,0-.362.213-.444a10.733,10.733,0,0,1,3.706-.637c2.671,0,4.489,1.018,4.489,4.027v4.962c0,.42.173.653.534.653a2.028,2.028,0,0,0,.466-.062c.176-.046.279.021.3.212l.127,1.058c.021.235-.062.3-.192.344m-4.2-4.921c0-.127-.046-.169-.173-.169-2.4,0-3.178.87-3.178,1.968a1.5,1.5,0,0,0,1.632,1.49,1.676,1.676,0,0,0,1.72-1.681Z" transform="translate(37.936 24.207)" fill="#20201f"/>
      <path id="Trazado_7770" data-name="Trazado 7770" d="M69.042,42.953H63.613a.267.267,0,0,1-.3-.3v-.573a.32.32,0,0,1,.275-.317l.852-.169c.189-.044.358-.233.358-.656V36.108a1.97,1.97,0,0,0-2.036-2.222,1.929,1.929,0,0,0-2.057,1.926v5.129c0,.423.169.612.362.656l.847.169a.32.32,0,0,1,.28.317v.573a.272.272,0,0,1-.305.3H56.471a.266.266,0,0,1-.3-.3v-.573a.316.316,0,0,1,.272-.317l.848-.169c.194-.044.365-.233.365-.656v-6.7c0-.3-.1-.66-.444-.721l-.937-.146a.3.3,0,0,1-.273-.317v-.6a.3.3,0,0,1,.3-.317l3.665-.337c.235-.025.34.108.362.314l.127,1.214h.079A5.137,5.137,0,0,1,64.23,31.7a3.312,3.312,0,0,1,3.623,3.35v5.891c0,.423.169.612.358.656l.848.169a.318.318,0,0,1,.279.317v.573a.267.267,0,0,1-.3.3" transform="translate(42.781 24.215)" fill="#20201f"/>
      <path id="Trazado_7771" data-name="Trazado 7771" d="M74.586,42.882a7.966,7.966,0,0,1-2.163.317,1.522,1.522,0,0,1-1.757-1.468h-.083A3.957,3.957,0,0,1,67.335,43.2a2.947,2.947,0,0,1-3.2-3.055c0-3.032,2.863-3.986,6.059-3.986.173,0,.215-.19.215-.293v-.385c0-1.312-1.034-1.734-2.439-1.734a4.814,4.814,0,0,0-2.305.568c-.213.109-.423.125-.464-.146l-.256-1.4a.336.336,0,0,1,.21-.444,10.762,10.762,0,0,1,3.706-.637c2.671,0,4.5,1.018,4.5,4.027v4.962c0,.42.169.653.527.653a2.008,2.008,0,0,0,.469-.062c.169-.046.272.021.3.212l.127,1.058c.021.235-.065.3-.194.344m-4.195-4.921c0-.127-.041-.169-.166-.169-2.4,0-3.184.87-3.184,1.968a1.5,1.5,0,0,0,1.633,1.49,1.673,1.673,0,0,0,1.716-1.681Z" transform="translate(48.994 24.207)" fill="#20201f"/>
      <path id="Trazado_7772" data-name="Trazado 7772" d="M78.875,34.477a.317.317,0,0,1-.422.213,4.762,4.762,0,0,0-1.251-.169,1.833,1.833,0,0,0-1.97,1.78v4.641c0,.422.169.633.358.654l1.272.171a.3.3,0,0,1,.277.317v.573a.27.27,0,0,1-.3.3H70.992a.264.264,0,0,1-.293-.3v-.573a.313.313,0,0,1,.273-.317l.85-.171c.185-.044.358-.233.358-.654v-6.7c0-.3-.106-.674-.445-.72l-.979-.146a.3.3,0,0,1-.275-.317v-.6a.3.3,0,0,1,.3-.316l3.665-.337c.238-.025.319.146.344.358L75,33.906h.086a3.79,3.79,0,0,1,3.156-2.2,2.779,2.779,0,0,1,.954.148c.148.067.168.191.127.427Z" transform="translate(53.84 24.215)" fill="#20201f"/>
      <path id="Trazado_7773" data-name="Trazado 7773" d="M82.216,44.748a5.428,5.428,0,0,1-1.843.4c-2.312,0-3.013-1.145-3.013-2.857V36.142c0-.3-.1-.66-.444-.72l-.76-.131a.3.3,0,0,1-.279-.319V34.36a.3.3,0,0,1,.3-.316l3.877-.339a.315.315,0,0,1,.358.279v8.137c0,.718.3,1.118.933,1.118a1.484,1.484,0,0,0,.614-.127c.044-.021.321-.081.36.3l.085.975a.348.348,0,0,1-.189.363M78.842,32.372a1.557,1.557,0,0,1-1.776-1.57,1.611,1.611,0,0,1,1.843-1.587c1.229,0,1.783.633,1.783,1.543,0,1.041-.744,1.614-1.85,1.614" transform="translate(57.961 22.316)" fill="#20201f"/>
      <path id="Trazado_7774" data-name="Trazado 7774" d="M90.562,42.882A7.99,7.99,0,0,1,88.4,43.2a1.516,1.516,0,0,1-1.753-1.468H86.56A3.948,3.948,0,0,1,83.32,43.2a2.946,2.946,0,0,1-3.2-3.055c0-3.032,2.857-3.986,6.055-3.986.171,0,.217-.19.217-.293v-.385c0-1.312-1.041-1.734-2.439-1.734a4.834,4.834,0,0,0-2.309.568c-.213.109-.429.125-.473-.146l-.247-1.4a.336.336,0,0,1,.21-.444,10.786,10.786,0,0,1,3.711-.637c2.667,0,4.491,1.018,4.491,4.027v4.962c0,.42.164.653.527.653a1.98,1.98,0,0,0,.466-.062c.168-.046.275.021.3.212l.129,1.058c.023.235-.064.3-.192.344m-4.191-4.921c0-.127-.042-.169-.169-.169-2.4,0-3.179.87-3.179,1.968a1.491,1.491,0,0,0,1.632,1.49,1.675,1.675,0,0,0,1.716-1.681Z" transform="translate(61.202 24.207)" fill="#20201f"/>
      <path id="Trazado_7775" data-name="Trazado 7775" d="M90.216,43.2a12.2,12.2,0,0,1-3.053-.427c-.171-.06-.34-.168-.34-.383V39.807c0-.192.065-.321.3-.321h.762a.341.341,0,0,1,.337.3l.2.78c.145.6.734.894,1.78.894s1.739-.6,1.739-1.381c0-.739-.54-1.1-1.3-1.4l-1.318-.51c-1.378-.529-2.434-1.289-2.434-2.986,0-2.392,2.328-3.5,4.4-3.5a8.746,8.746,0,0,1,2.651.377c.168.064.318.127.318.383v2.314a.3.3,0,0,1-.339.314H93.29a.321.321,0,0,1-.342-.3l-.153-.677c-.1-.487-.614-.739-1.436-.739-.739,0-1.5.385-1.5,1.143,0,.681.46.952,1.222,1.251l1.335.506c1.318.512,2.544,1.3,2.544,3.1,0,2.586-2.521,3.838-4.743,3.838" transform="translate(66.321 24.207)" fill="#20201f"/>
    </g>
    <rect id="Rectángulo_2548" data-name="Rectángulo 2548" width="199" height="75" transform="translate(776 83)" fill="none"/>
  </g>
</svg>
