<?xml version="1.0" encoding="UTF-8"?>
<svg id="Capa_2" xmlns="http://www.w3.org/2000/svg" xmlns:xlink="http://www.w3.org/1999/xlink" viewBox="0 0 450.68 141.73">
  <defs>
    <style>
      .cls-1 {
        fill: #009fda;
      }

      .cls-2 {
        fill: #0f204b;
        fill-rule: evenodd;
      }
    </style>
    <symbol id="Imagotipo_-_Color_principal" data-name="Imagotipo - Color principal" viewBox="0 0 108.16 34.02">
      <g>
        <g>
          <path class="cls-1" d="M52.74,12.64v-6.79h.79v6.79h-.79Z"/>
          <path class="cls-1" d="M59.04,12.64l-3-5.21h-.04v5.21h-.76v-6.79h.81l2.95,5.11h.04v-5.11h.77v6.79h-.77Z"/>
          <path class="cls-1" d="M62.33,12.69c-.37-.02-.7-.06-.97-.1v-.67c.7.07,1.3.11,1.81.11.32,0,.56-.02.74-.05.18-.03.33-.09.45-.18.12-.08.19-.2.23-.36.03-.16.05-.38.05-.66,0-.35-.02-.59-.05-.73-.03-.14-.11-.24-.22-.3-.12-.06-.32-.11-.62-.15l-1.39-.18c-.34-.05-.59-.14-.75-.29-.17-.14-.28-.33-.33-.56-.05-.23-.08-.53-.08-.91,0-.51.08-.9.24-1.17.16-.27.39-.46.7-.57.31-.11.71-.16,1.21-.16.34,0,.68.01,1,.04.33.03.59.07.8.11v.65c-.49-.07-1.03-.11-1.63-.11-.34,0-.6.02-.8.06-.2.04-.35.1-.45.19-.11.09-.19.2-.22.34-.04.14-.05.34-.05.59,0,.29.02.5.05.63.03.13.1.23.2.28.1.06.26.1.48.12l1.36.18c.36.05.63.12.81.21.19.1.33.27.42.52.09.21.13.58.13,1.11,0,.56-.08.99-.23,1.28-.15.29-.37.49-.66.59-.29.1-.67.15-1.15.15-.34,0-.7-.01-1.07-.03Z"/>
          <path class="cls-1" d="M68.05,12.64v-6.07h-1.84v-.72h4.46v.72h-1.84v6.07h-.79Z"/>
          <path class="cls-1" d="M71.78,12.64v-6.79h.79v6.79h-.79Z"/>
          <path class="cls-1" d="M75.5,12.64v-6.07h-1.84v-.72h4.46v.72h-1.84v6.07h-.79Z"/>
          <path class="cls-1" d="M83.66,5.85v3.83c0,.88-.05,1.52-.14,1.93-.09.4-.29.69-.6.86-.31.17-.81.25-1.51.25s-1.19-.08-1.5-.25c-.31-.17-.52-.45-.61-.86-.1-.4-.14-1.05-.14-1.93v-3.83h.79v4.17c0,.61.03,1.05.08,1.3.06.26.18.44.38.54.2.1.53.15,1.01.15s.81-.05,1.01-.15c.2-.1.32-.28.38-.54.05-.26.08-.69.08-1.3v-4.17h.79Z"/>
          <path class="cls-1" d="M86.52,12.64v-6.07h-1.84v-.72h4.46v.72h-1.84v6.07h-.79Z"/>
          <path class="cls-1" d="M90.77,12.46c-.33-.17-.54-.49-.63-.93-.09-.45-.13-1.21-.13-2.28s.04-1.83.13-2.28c.09-.45.3-.76.63-.93.33-.17.88-.26,1.66-.26s1.33.09,1.65.26c.33.17.53.49.62.93s.13,1.21.13,2.28-.04,1.83-.13,2.28-.3.76-.62.93c-.33.17-.88.26-1.65.26s-1.33-.09-1.66-.26ZM93.56,11.88c.2-.09.33-.32.39-.67.07-.36.1-1.01.1-1.96s-.03-1.61-.1-1.96c-.07-.36-.2-.58-.39-.67-.2-.09-.57-.14-1.12-.14s-.93.05-1.13.14-.33.32-.4.67-.1,1.01-.1,1.96.03,1.61.1,1.96.2.58.4.67.58.14,1.13.14.93-.05,1.12-.14Z"/>
          <path class="cls-1" d="M53.66,23.29v-6.07h-1.84v-.72h4.46v.72h-1.84v6.07h-.79Z"/>
          <path class="cls-1" d="M57.38,23.29v-6.79h3.81v.7h-3.02v2.31h2.62v.7h-2.62v2.38h3.02v.7h-3.81Z"/>
          <path class="cls-1" d="M65.4,23.33c-.25.02-.5.03-.73.03-.71,0-1.23-.09-1.55-.26-.32-.17-.54-.5-.65-.97-.11-.47-.17-1.22-.17-2.25s.06-1.76.17-2.23c.11-.47.33-.79.66-.97.33-.18.84-.27,1.54-.27.23,0,.47.01.73.04.25.03.46.06.62.1v.65c-.38-.06-.77-.09-1.15-.09-.57,0-.97.06-1.2.17s-.38.35-.45.71c-.07.36-.11.99-.11,1.89s.04,1.53.11,1.89c.07.36.22.6.45.71s.63.17,1.2.17c.47,0,.86-.03,1.18-.09v.66c-.18.04-.39.07-.65.09Z"/>
          <path class="cls-1" d="M71.15,23.29l-3-5.21h-.04v5.21h-.76v-6.79h.81l2.95,5.11h.04v-5.11h.77v6.79h-.77Z"/>
          <path class="cls-1" d="M74.17,23.11c-.33-.17-.54-.49-.63-.93-.09-.45-.13-1.21-.13-2.28s.04-1.83.13-2.28c.09-.45.3-.76.63-.93.33-.17.88-.26,1.66-.26s1.33.09,1.65.26c.33.17.53.49.62.93s.13,1.21.13,2.28-.04,1.83-.13,2.28-.3.76-.62.93c-.33.17-.88.26-1.65.26s-1.33-.09-1.66-.26ZM76.95,22.53c.2-.09.33-.32.39-.67.07-.36.1-1.01.1-1.96s-.03-1.61-.1-1.96c-.07-.36-.2-.58-.39-.67-.2-.09-.57-.14-1.12-.14s-.93.05-1.13.14-.33.32-.4.67-.1,1.01-.1,1.96.03,1.61.1,1.96.2.58.4.67.58.14,1.13.14.93-.05,1.12-.14Z"/>
          <path class="cls-1" d="M79.73,23.29v-6.79h.79v6.07h2.68v.72h-3.47Z"/>
          <path class="cls-1" d="M84.85,23.11c-.33-.17-.54-.49-.63-.93-.09-.45-.13-1.21-.13-2.28s.04-1.83.13-2.28c.09-.45.3-.76.63-.93.33-.17.88-.26,1.66-.26s1.33.09,1.65.26c.33.17.53.49.62.93s.13,1.21.13,2.28-.04,1.83-.13,2.28-.3.76-.62.93c-.33.17-.88.26-1.65.26s-1.33-.09-1.66-.26ZM87.63,22.53c.2-.09.33-.32.39-.67.07-.36.1-1.01.1-1.96s-.03-1.61-.1-1.96c-.07-.36-.2-.58-.39-.67-.2-.09-.57-.14-1.12-.14s-.93.05-1.13.14-.33.32-.4.67-.1,1.01-.1,1.96.03,1.61.1,1.96.2.58.4.67.58.14,1.13.14.93-.05,1.12-.14Z"/>
          <path class="cls-1" d="M92.54,20.33v-.68h2.06v3.53c-.28.05-.59.1-.95.13-.36.04-.67.05-.95.05-.72,0-1.26-.09-1.6-.26-.34-.17-.58-.5-.71-.98-.13-.48-.19-1.23-.19-2.24s.07-1.74.2-2.22c.13-.48.37-.81.72-.99.35-.18.88-.27,1.6-.27.31,0,.64.02.99.06.35.04.64.09.86.14v.65c-.24-.04-.5-.07-.79-.1-.29-.03-.53-.04-.71-.04-.66,0-1.13.05-1.39.14s-.44.32-.54.7c-.1.37-.15,1.02-.15,1.94,0,.86.04,1.47.11,1.84.08.37.23.62.46.75.23.13.61.2,1.14.2.16,0,.35,0,.57-.02.21-.02.4-.04.55-.06v-2.27h-1.29Z"/>
          <path class="cls-1" d="M96.19,23.29v-6.79h.79v6.79h-.79Z"/>
          <path class="cls-1" d="M101.59,23.33c-.25.02-.5.03-.73.03-.71,0-1.23-.09-1.55-.26-.32-.17-.54-.5-.65-.97-.11-.47-.17-1.22-.17-2.25s.06-1.76.17-2.23c.11-.47.33-.79.66-.97.33-.18.84-.27,1.54-.27.23,0,.47.01.73.04.25.03.46.06.62.1v.65c-.38-.06-.77-.09-1.15-.09-.57,0-.97.06-1.2.17s-.38.35-.45.71c-.07.36-.11.99-.11,1.89s.04,1.53.11,1.89c.07.36.22.6.45.71s.63.17,1.2.17c.47,0,.86-.03,1.18-.09v.66c-.18.04-.39.07-.65.09Z"/>
          <path class="cls-1" d="M104.1,23.11c-.33-.17-.54-.49-.63-.93-.09-.45-.13-1.21-.13-2.28s.04-1.83.13-2.28c.09-.45.3-.76.63-.93.33-.17.88-.26,1.66-.26s1.33.09,1.65.26c.33.17.53.49.62.93s.13,1.21.13,2.28-.04,1.83-.13,2.28-.3.76-.62.93c-.33.17-.88.26-1.65.26s-1.33-.09-1.66-.26ZM106.88,22.53c.2-.09.33-.32.39-.67.07-.36.1-1.01.1-1.96s-.03-1.61-.1-1.96c-.07-.36-.2-.58-.39-.67-.2-.09-.57-.14-1.12-.14s-.93.05-1.13.14-.33.32-.4.67-.1,1.01-.1,1.96.03,1.61.1,1.96.2.58.4.67.58.14,1.13.14.93-.05,1.12-.14Z"/>
          <path class="cls-1" d="M52.71,27.15h1.89c.81,0,1.38.08,1.72.25.34.17.55.47.64.91.09.44.14,1.18.14,2.23s-.05,1.8-.14,2.24c-.09.44-.31.74-.64.91-.34.17-.91.25-1.72.25h-1.89v-6.79ZM54.51,33.24c.62,0,1.04-.04,1.26-.13.22-.09.36-.3.43-.65.07-.34.1-.98.1-1.91s-.03-1.56-.1-1.91c-.07-.35-.22-.56-.44-.65-.22-.09-.64-.13-1.25-.13h-1.02v5.39h1.02Z"/>
          <path class="cls-1" d="M58.6,33.94v-6.79h3.81v.7h-3.02v2.31h2.62v.7h-2.62v2.38h3.02v.7h-3.81Z"/>
          <path class="cls-1" d="M68.71,33.98c-.25.02-.5.03-.73.03-.71,0-1.23-.09-1.55-.26-.32-.17-.54-.5-.65-.97-.11-.47-.17-1.22-.17-2.25s.06-1.76.17-2.23c.11-.47.33-.79.66-.97.33-.18.84-.27,1.54-.27.23,0,.47.01.73.04.25.03.46.06.62.1v.65c-.38-.06-.77-.09-1.15-.09-.57,0-.97.06-1.2.17s-.38.35-.45.71c-.07.36-.11.99-.11,1.89s.04,1.53.11,1.89c.07.36.22.6.45.71s.63.17,1.2.17c.47,0,.86-.03,1.18-.09v.66c-.18.04-.39.07-.65.09Z"/>
          <path class="cls-1" d="M74.6,33.94l-.6-1.86h-2.57l-.59,1.86h-.8l2.17-6.79h1.04l2.17,6.79h-.82ZM72.75,28.02h-.05l-1.07,3.36h2.16l-1.05-3.36Z"/>
          <path class="cls-1" d="M80.31,33.94l-3-5.21h-.04v5.21h-.76v-6.79h.81l2.95,5.11h.04v-5.11h.77v6.79h-.77Z"/>
          <path class="cls-1" d="M86.71,33.94l-.6-1.86h-2.57l-.59,1.86h-.8l2.17-6.79h1.04l2.17,6.79h-.82ZM84.86,28.02h-.05l-1.07,3.36h2.16l-1.05-3.36Z"/>
          <path class="cls-1" d="M92.24,33.94l-.95-2.7h-1.88v2.7h-.79v-6.79h2.62c.51,0,.89.09,1.14.26.25.17.42.4.49.68.08.28.11.65.11,1.11,0,.49-.06.9-.18,1.22-.12.32-.37.55-.75.68l1.04,2.84h-.85ZM91.77,30.4c.17-.1.29-.24.34-.42.05-.18.08-.45.08-.79s-.02-.61-.07-.79c-.05-.18-.15-.31-.32-.41-.17-.1-.43-.14-.77-.14h-1.62v2.69h1.56c.36,0,.63-.05.8-.14Z"/>
          <path class="cls-1" d="M94.46,33.94v-6.79h.79v6.79h-.79Z"/>
          <path class="cls-1" d="M100.9,33.94l-.6-1.86h-2.57l-.59,1.86h-.8l2.17-6.79h1.04l2.17,6.79h-.82ZM99.05,28.02h-.05l-1.07,3.36h2.16l-1.05-3.36Z"/>
          <path class="cls-1" d="M103.57,33.98c-.37-.02-.7-.06-.97-.1v-.67c.7.07,1.3.11,1.81.11.32,0,.56-.02.74-.05.18-.03.33-.09.45-.18.12-.08.19-.2.23-.36.03-.16.05-.38.05-.66,0-.35-.02-.59-.05-.73-.03-.14-.11-.24-.22-.3-.12-.06-.32-.11-.62-.15l-1.39-.18c-.34-.05-.59-.14-.75-.29-.17-.14-.28-.33-.33-.56-.05-.23-.08-.53-.08-.91,0-.51.08-.9.24-1.17.16-.27.39-.46.7-.57.31-.11.71-.16,1.21-.16.34,0,.68.01,1,.04.33.03.59.07.8.11v.65c-.49-.07-1.03-.11-1.63-.11-.34,0-.6.02-.8.06-.2.04-.35.1-.45.19-.11.09-.19.2-.22.34-.04.14-.05.34-.05.59,0,.29.02.5.05.63.03.13.1.23.2.28.1.06.26.1.48.12l1.36.18c.36.05.63.12.81.21.19.1.33.27.42.52.09.21.13.58.13,1.11,0,.56-.08.99-.23,1.28-.15.29-.37.49-.66.59-.29.1-.67.15-1.15.15-.34,0-.7-.01-1.07-.03Z"/>
          <rect class="cls-1" x="86.5" y="14.45" width="1.57" height=".79"/>
        </g>
        <g>
          <rect class="cls-1" x="4.69" y="0" width="5.87" height="5.86"/>
          <g>
            <path class="cls-2" d="M39.59,11.35h1.47v-5.48h-2.27c-6,0-9.46,3.9-9.46,10.17v7.8c0,6.27,3.47,10.18,9.46,10.18h2.27v-5.56h-1.44c-3,0-4.4-1.04-4.4-4.01l-.02-9.15c0-2.97,1.4-3.96,4.4-3.96Z"/>
            <path class="cls-2" d="M26.98,5.86h-5.84V0h-5.86v23.72c0,6.34,3.46,10.3,9.47,10.3h2.24v-5.56h-1.44c-3,0-4.4-1-4.4-4.01l-.02-13.11h5.86v-5.47Z"/>
            <polygon class="cls-2" points="0 14.08 4.69 14.08 4.69 14.08 4.69 34.01 4.69 34.01 10.56 34.01 10.56 8.6 0 8.6 0 14.08"/>
          </g>
        </g>
      </g>
    </symbol>
  </defs>
  <g id="Capa_1-2" data-name="Capa_1">
    <use width="108.16" height="34.02" transform="scale(4.17)" xlink:href="#Imagotipo_-_Color_principal"/>
  </g>
</svg>