<?xml version="1.0" encoding="UTF-8"?>
<svg version="1.1" xmlns="http://www.w3.org/2000/svg" width="630" height="150">
<path d="M0 0 C3.32821697 1.20699227 5.37250441 3.15406636 8.03125 5.48046875 C12.72880448 9.4083329 15.62310238 10.39063416 21.546875 10.04663086 C23.13455939 9.88034013 24.7197785 9.68800403 26.30078125 9.46704102 C31.99737253 8.68188584 31.99737253 8.68188584 35.4375 10.203125 C39.74968704 13.73493491 41.57373885 17.96043634 43.34375 23.10546875 C44.80354801 26.89412741 45.18063903 27.70220815 48.78125 29.91796875 C50.01875 30.24796875 51.25625 30.57796875 52.53125 30.91796875 C54.2946875 31.47484375 54.2946875 31.47484375 56.09375 32.04296875 C59.75022377 32.93957534 63.21274107 32.97420886 66.96875 33.04296875 C76.15568621 33.56765368 83.58436818 37.60139215 91.53125 41.91796875 C92.16651611 42.25376953 92.80178223 42.58957031 93.45629883 42.93554688 C99.57117309 46.26429657 103.85091722 50.55730319 106.96875 56.79296875 C108.28486464 64.10471672 108.43172874 71.37777208 104.53125 77.91796875 C99.71630134 84.2224339 94.23208391 87.99276027 86.53125 89.91796875 C83.74067092 90.23722992 80.96832941 90.4179916 78.1640625 90.5703125 C75.42054758 90.93258673 73.75448214 91.6651073 71.34375 92.98046875 C64.93090773 96.23387042 57.52097015 95.22671712 50.53125 94.91796875 C50.03625 96.40296875 50.03625 96.40296875 49.53125 97.91796875 C50.52705078 98.04751953 50.52705078 98.04751953 51.54296875 98.1796875 C55.92938359 98.87767176 58.93208413 99.48999313 62.59375 102.10546875 C65.05799262 105.68259513 65.67674556 107.55310207 65.53125 111.91796875 C61.09697352 125.14434516 46.13631878 137.80276214 34.07324219 143.8112793 C22.76203979 149.23495187 11.95622375 151.46956765 -0.59375 151.35546875 C-1.77155029 151.34789551 -2.94935059 151.34032227 -4.1628418 151.33251953 C-25.35355217 150.93605284 -45.136932 144.93638054 -60.62890625 129.80859375 C-62.36188551 127.91004322 -63.94001884 125.98324622 -65.46875 123.91796875 C-65.90058594 123.34433594 -66.33242187 122.77070312 -66.77734375 122.1796875 C-69.83297758 117.58037707 -70.42021272 113.24810175 -69.46875 107.91796875 C-67.10065613 102.99961993 -64.59575886 100.76369194 -59.46875 98.91796875 C-56.09375 98.73046875 -56.09375 98.73046875 -53.46875 98.91796875 C-53.67371094 98.3353125 -53.87867187 97.75265625 -54.08984375 97.15234375 C-58.86775987 82.6128478 -58.41251484 67.81102444 -52 53.79296875 C-45.0005701 40.65118201 -34.65588896 30.81339559 -20.46875 25.91796875 C-4.05741039 21.01639573 10.71565084 22.30461813 25.96875 30.41796875 C28.07434144 31.65051008 30.05389841 32.93177561 32.03125 34.35546875 C34.35824285 36.20185262 34.35824285 36.20185262 36.6875 35.515625 C37.2959375 35.31839844 37.904375 35.12117188 38.53125 34.91796875 C38.02464844 33.81388672 38.02464844 33.81388672 37.5078125 32.6875 C36.83878906 31.22376953 36.83878906 31.22376953 36.15625 29.73046875 C35.71539062 28.76753906 35.27453125 27.80460937 34.8203125 26.8125 C33.65803149 24.20265083 32.57200219 21.57820916 31.53125 18.91796875 C30.30148438 19.02496094 29.07171875 19.13195312 27.8046875 19.2421875 C26.17194147 19.36417427 24.53912482 19.48521828 22.90625 19.60546875 C22.09800781 19.67830078 21.28976563 19.75113281 20.45703125 19.82617188 C14.03352341 20.27007282 10.28124139 19.10802758 5.15234375 15.0234375 C3.68867598 13.73781876 2.2303757 12.44606496 0.77734375 11.1484375 C-1.42585945 9.61697209 -1.42585945 9.61697209 -3.953125 10.49609375 C-6.56838728 11.97428548 -8.82618652 13.58556144 -11.15625 15.48046875 C-18.98644239 21.8104226 -26.86769736 19.9063124 -36.46875 18.91796875 C-36.74847656 19.78679688 -37.02820312 20.655625 -37.31640625 21.55078125 C-39.78312148 28.64159609 -41.74240585 34.14245374 -48.46875 37.91796875 C-56.87253549 41.91796875 -56.87253549 41.91796875 -60.46875 41.91796875 C-60.21738281 43.54605469 -60.21738281 43.54605469 -59.9609375 45.20703125 C-59.75447914 46.65223977 -59.54879069 48.09755842 -59.34375 49.54296875 C-59.23160156 50.25582031 -59.11945312 50.96867187 -59.00390625 51.703125 C-58.17514607 57.72544895 -58.85336933 61.66081863 -62.484375 66.734375 C-63.97938798 68.57177732 -65.47943507 70.40509456 -66.984375 72.234375 C-68.78536706 74.80021628 -68.78536706 74.80021628 -67.9296875 77.484375 C-66.42159068 79.99652559 -64.77478449 82.09174836 -62.84375 84.29296875 C-60.38259175 87.38743759 -59.50114137 88.75331262 -58.71875 92.73046875 C-59.46875 95.91796875 -59.46875 95.91796875 -61.78125 98.35546875 C-64.46875 99.91796875 -64.46875 99.91796875 -67.46875 99.91796875 C-67.51 98.74234375 -67.55125 97.56671875 -67.59375 96.35546875 C-68.00324393 92.70782281 -68.77246275 91.39929763 -71.53125 89.04296875 C-75.73055579 84.66064237 -75.2467926 79.25590925 -75.19775391 73.52807617 C-74.9217633 67.84348494 -73.762793 65.21749208 -69.7265625 61.171875 C-67.46775251 57.12425585 -68.48438427 52.55049431 -69.07202148 48.08178711 C-69.67489363 43.11898892 -69.30969927 40.2706158 -66.46875 35.91796875 C-63.78369089 33.69133437 -61.3926379 32.18743605 -58.03125 31.20703125 C-53.75347018 29.92115101 -51.18814906 29.14251484 -48.85546875 25.171875 C-48.03762447 23.10321006 -47.28166243 21.008574 -46.6015625 18.890625 C-45.11699259 14.99490879 -43.04759707 12.0612718 -39.65625 9.60546875 C-35.77041728 8.38420704 -31.95113373 8.59062849 -27.9921875 9.46484375 C-23.25822853 10.36525093 -20.61874893 10.65491897 -16.4453125 7.98046875 C-15.44242188 7.15546875 -14.43953125 6.33046875 -13.40625 5.48046875 C-8.88952989 1.77757209 -5.94752395 -0.49876388 0 0 Z M-34.46875 47.91796875 C-43.89652103 59.30985874 -46.70001111 70.33107458 -45.69628906 84.84716797 C-44.70456247 93.87273121 -39.84821694 102.53850181 -33.46875 108.91796875 C-29.11637868 108.79361528 -26.49133989 106.67725494 -23.21484375 104.07421875 C-19.92880648 101.89822987 -16.57334015 101.80004301 -12.71484375 101.77734375 C-2.01350923 101.59144373 7.63929781 100.78590294 17.91552734 97.72680664 C24.8012409 95.70653205 31.33693256 95.04706743 38.53125 94.91796875 C39.52125 91.94796875 39.52125 91.94796875 40.53125 88.91796875 C39.56445312 88.964375 38.59765625 89.01078125 37.6015625 89.05859375 C27.94569196 89.32628125 20.15592148 88.52380767 12.15625 82.66796875 C7.10802344 77.37935044 4.416104 71.28731247 4.53125 63.91796875 C5.18616318 57.93019109 7.49367418 52.40827046 11.53125 47.91796875 C14.7227343 45.62088204 18.03457849 43.71043725 21.53125 41.91796875 C5.58636786 28.88573487 -20.84255525 33.45825676 -34.46875 47.91796875 Z M35.29296875 49.796875 C32.92437107 51.30416443 30.80013795 51.52561621 28.03125 51.91796875 C22.63938887 52.70290636 20.19685238 53.87640715 16.53125 57.91796875 C14.66191694 61.00643206 14.52775011 62.72547457 14.59375 66.35546875 C15.68444035 70.50009209 17.23555117 73.23258452 20.53125 75.91796875 C25.39578859 78.63068839 29.97108572 79.41441199 35.53125 78.91796875 C36.86640508 78.46496971 38.19969785 78.00645132 39.53125 77.54296875 C41.54296875 76.96875 41.54296875 76.96875 43.53125 76.91796875 C45.68378936 78.20261799 47.25195979 79.63519008 48.98828125 81.4375 C52.30118247 84.61620775 56.57982079 84.24002519 60.8984375 84.21484375 C64.3614505 83.82435564 66.79660632 82.57315207 69.796875 80.875 C73.1787796 79.00885895 76.09976232 78.90198772 79.90625 79.04296875 C85.55523877 78.84817603 89.20957284 77.09598535 93.40625 73.35546875 C96.37885856 69.94571187 97.01731023 67.6628949 96.92578125 63.078125 C96.17131544 58.94723793 93.78627817 56.43321779 90.53125 53.91796875 C88.03946793 52.69626977 85.55297271 51.7380472 82.93359375 50.82421875 C79.73346769 49.61701672 77.31418801 47.88638831 74.53125 45.91796875 C71.43147729 44.88471118 69.45253878 44.8775958 66.21875 44.98046875 C61.83869092 45.03226971 58.66219928 44.42013212 54.53125 42.91796875 C46.44191997 42.16895671 41.13833975 44.39991602 35.29296875 49.796875 Z M25.32421875 107.1953125 C13.25998708 110.24325459 1.88083047 112.63986299 -10.61254883 112.51538086 C-15.73282128 112.43377582 -15.73282128 112.43377582 -20.0703125 114.94140625 C-20.53179687 115.59367187 -20.99328125 116.2459375 -21.46875 116.91796875 C-15.87221435 118.94569906 -10.41298079 120.42478529 -4.53515625 121.390625 C-2.46875 121.91796875 -2.46875 121.91796875 -0.46875 123.91796875 C-0.15625 126.91796875 -0.15625 126.91796875 -0.46875 129.91796875 C-4.84503985 132.83549532 -7.9080652 131.55540023 -12.9296875 130.67578125 C-26.69817735 127.72756157 -38.55820841 122.13313739 -49.09375 112.7734375 C-51.3672774 110.99724422 -52.6076539 110.09082664 -55.46875 109.91796875 C-56.45875 110.57796875 -57.44875 111.23796875 -58.46875 111.91796875 C-55.76566084 120.83816297 -48.18090241 126.36474882 -40.46875 130.91796875 C-21.93351211 140.1855877 0.60301855 143.37175049 20.53125 136.91796875 C33.26146218 132.07076848 44.7381262 124.32392422 52.53125 112.91796875 C52.03625 111.43296875 52.03625 111.43296875 51.53125 109.91796875 C49.76811841 109.12992483 49.76811841 109.12992483 47.6015625 108.75 C46.80621094 108.57919922 46.01085937 108.40839844 45.19140625 108.23242188 C44.35480469 108.06677734 43.51820312 107.90113281 42.65625 107.73046875 C41.82738281 107.55322266 40.99851562 107.37597656 40.14453125 107.19335938 C34.71171396 106.05676836 30.7604544 105.76857628 25.32421875 107.1953125 Z " fill="#FFDF00" transform="translate(74.46875,-0.91796875)"/>
<path d="M0 0 C2.97 0 5.94 0 9 0 C12.00444673 7.29275865 14.68790857 14.66646717 17.25 22.125 C17.61351562 23.176875 17.97703125 24.22875 18.3515625 25.3125 C19.23653541 27.8742637 20.11930766 30.43676225 21 33 C21.32798584 32.03586182 21.65597168 31.07172363 21.99389648 30.07836914 C23.20789916 26.51225214 24.42574489 22.94745776 25.64477539 19.38305664 C26.1725238 17.83816948 26.6992197 16.29292236 27.22485352 14.74731445 C27.97918785 12.52981324 28.73725874 10.3136207 29.49609375 8.09765625 C29.73154404 7.4028566 29.96699432 6.70805695 30.20957947 5.99220276 C31.88612829 1.11387171 31.88612829 1.11387171 33 0 C35.64 0 38.28 0 41 0 C41 14.19 41 28.38 41 43 C39.02 43 37.04 43 35 43 C34.67 33.43 34.34 23.86 34 14 C30.7 23.57 27.4 33.14 24 43 C21.69 43 19.38 43 17 43 C13.7 33.1 10.4 23.2 7 13 C6.67 22.9 6.34 32.8 6 43 C4.02 43 2.04 43 0 43 C0 28.81 0 14.62 0 0 Z " fill="#FFDF00" transform="translate(465,57)"/>
<path d="M0 0 C7 0 7 0 9.01171875 1.7734375 C9.56472656 2.63195313 10.11773437 3.49046875 10.6875 4.375 C11.66783203 5.85033203 11.66783203 5.85033203 12.66796875 7.35546875 C13.02810059 7.92056152 13.38823242 8.4856543 13.75927734 9.06787109 C15.68944574 12.0736469 17.69665148 15.02718266 19.69262695 17.98950195 C22.14420016 21.64914473 24.56936069 25.32642014 27 29 C27.33 19.43 27.66 9.86 28 0 C30.31 0 32.62 0 35 0 C35 14.19 35 28.38 35 43 C28 43 28 43 25.734375 40.97265625 C25.07953125 40.01230469 24.4246875 39.05195312 23.75 38.0625 C23.00363281 36.98613281 22.25726563 35.90976563 21.48828125 34.80078125 C20.65561318 33.53598189 19.82644147 32.26887668 19 31 C18.26982666 29.89277588 18.26982666 29.89277588 17.52490234 28.76318359 C14.30262977 23.87017848 11.14870009 18.94226344 8 14 C7.67 23.57 7.34 33.14 7 43 C4.69 43 2.38 43 0 43 C0 28.81 0 14.62 0 0 Z " fill="#FFDF00" transform="translate(320,57)"/>
<path d="M0 0 C5.754375 -0.0928125 5.754375 -0.0928125 11.625 -0.1875 C13.42251709 -0.22846802 13.42251709 -0.22846802 15.25634766 -0.27026367 C20.89295849 -0.31427751 25.19078422 -0.31835889 30 3 C33.42766919 6.77043611 33.50853701 10.66769838 33.35546875 15.55859375 C32.82863459 19.17696026 31.42077514 21.31024985 29 24 C26.12506705 25.75873836 24.02217267 26.2431739 20.671875 26.1953125 C19.87265625 26.18886719 19.0734375 26.18242188 18.25 26.17578125 C17.425 26.15902344 16.6 26.14226562 15.75 26.125 C14.90953125 26.11597656 14.0690625 26.10695313 13.203125 26.09765625 C11.13529396 26.07415817 9.06761005 26.03828908 7 26 C7 31.61 7 37.22 7 43 C4.69 43 2.38 43 0 43 C0 28.81 0 14.62 0 0 Z M7 6 C7 10.62 7 15.24 7 20 C10.3103125 20.0928125 10.3103125 20.0928125 13.6875 20.1875 C14.92886719 20.22230469 16.17023438 20.25710937 17.44921875 20.29296875 C21.2285056 19.9811464 23.05233808 19.3406295 26 17 C27.16448881 14.09648876 27.16448881 14.09648876 27 11 C26.02709374 8.73072359 26.02709374 8.73072359 24 7 C20.68599193 6.29601566 20.68599193 6.29601566 17 6.25 C15.14375 6.16492187 15.14375 6.16492187 13.25 6.078125 C11.16710562 6.02805542 9.08349609 6 7 6 Z " fill="#FFDF00" transform="translate(201,57)"/>
<path d="M0 0 C3.3527994 2.69681691 4.7816886 4.10996121 5.8125 8.3125 C5.874375 9.199375 5.93625 10.08625 6 11 C4.02 11.33 2.04 11.66 0 12 C-0.61875 11.030625 -1.2375 10.06125 -1.875 9.0625 C-3.65678846 5.97164638 -3.65678846 5.97164638 -6 5 C-13.89005601 4.31564357 -13.89005601 4.31564357 -21 7 C-24.13050095 13.8572878 -24.12065772 22.45125054 -21.875 29.5625 C-19.46892539 32.69039699 -17.76627396 33.79194986 -14 35 C-9.40674657 35.29721052 -6.73926519 34.59462635 -3.125 31.6875 C-1.377055 29.47686368 -0.05720221 27.59495087 1 25 C2.98 25.33 4.96 25.66 7 26 C6.521575 31.02346252 5.22014577 34.10192881 2 38 C-3.93780111 42.70075921 -9.59447425 42.82627902 -17 42 C-22.48018223 40.27475745 -25.85516355 36.68795496 -29 32 C-32.15748923 24.53684364 -32.08802437 16.21016398 -29.375 8.625 C-26.8363612 2.99351251 -23.79138374 0.27432736 -18.125 -2.3125 C-11.18361022 -3.83960575 -6.2681045 -3.42971756 0 0 Z " fill="#FFDF00" transform="translate(395,59)"/>
<path d="M0 0 C4.00332759 3.29162491 5.71730707 5.98583671 7 11 C4.69 11.33 2.38 11.66 0 12 C-0.61875 11.030625 -1.2375 10.06125 -1.875 9.0625 C-3.65678846 5.97164638 -3.65678846 5.97164638 -6 5 C-10.79937735 4.48183714 -14.73409126 4.28792633 -19 6.6875 C-23.09727268 11.42497154 -23.44345879 16.14628076 -23.3125 22.203125 C-22.84366394 26.39920777 -21.69424785 29.7200461 -19 33 C-14.25260199 35.69738523 -10.15114132 35.16316094 -5 34 C-1.62665501 31.51437738 -0.31199379 28.93598137 1 25 C2.98 25.33 4.96 25.66 7 26 C6.6446631 31.92228163 5.24411091 34.85020267 1 39 C-4.43291074 42.97530054 -10.53965037 42.63981454 -17 42 C-22.0099287 40.36038697 -25.25086198 37.4649121 -28 33 C-31.55695787 25.57307196 -32.40299012 17.56258995 -29.8125 9.6875 C-27.43315083 4.14685592 -23.29723961 0.71653313 -18 -2 C-11.66238999 -4.32379034 -5.80161002 -3.11567946 0 0 Z " fill="#FFDF00" transform="translate(588,59)"/>
<path d="M0 0 C2.31 0 4.62 0 7 0 C11.02519521 7.59387851 14.3336832 15.4299591 17.50415039 23.40698242 C18.32188438 25.46107291 19.14982397 27.51085612 19.97851562 29.56054688 C20.50321543 30.87215147 21.02732627 32.18399186 21.55078125 33.49609375 C22.25714722 35.26231079 22.25714722 35.26231079 22.9777832 37.06420898 C24 40 24 40 24 43 C21.69 43 19.38 43 17 43 C16.3291288 41.3767313 15.66342971 39.75132422 15 38.125 C14.62875 37.22007813 14.2575 36.31515625 13.875 35.3828125 C13 33 13 33 13 31 C7.06 31 1.12 31 -5 31 C-5.495 33.475 -5.495 33.475 -6 36 C-6.89305874 38.39228689 -7.94896026 40.66943362 -9 43 C-11.31 43 -13.62 43 -16 43 C-13.14014364 34.00745528 -9.69980417 25.24084369 -6.3125 16.4375 C-5.69969009 14.84056374 -5.08705835 13.24355909 -4.47460938 11.64648438 C-2.98512733 7.76353092 -1.49323218 3.88151276 0 0 Z M3 9 C2.16280617 11.29032311 1.3301071 13.58210957 0.5 15.875 C0.26152344 16.52597656 0.02304687 17.17695312 -0.22265625 17.84765625 C-1.54877533 21.33457589 -1.54877533 21.33457589 -2 25 C1.96 25 5.92 25 10 25 C8.40615011 19.63886855 6.8106711 14.29273092 5 9 C4.34 9 3.68 9 3 9 Z " fill="#FFDF00" transform="translate(528,57)"/>
<path d="M0 0 C2.31 0 4.62 0 7 0 C11.21522766 8.94595998 15.14615554 17.96501253 18.875 27.125 C19.37257813 28.32898438 19.87015625 29.53296875 20.3828125 30.7734375 C20.85203125 31.92328125 21.32125 33.073125 21.8046875 34.2578125 C22.43866455 35.80686279 22.43866455 35.80686279 23.08544922 37.38720703 C24 40 24 40 24 43 C21.69 43 19.38 43 17 43 C16.32645501 41.56570999 15.66140299 40.12742943 15 38.6875 C14.443125 37.48673828 14.443125 37.48673828 13.875 36.26171875 C13 34 13 34 13 31 C7.06 31 1.12 31 -5 31 C-5.474375 32.60875 -5.94875 34.2175 -6.4375 35.875 C-7.875 40.75 -7.875 40.75 -9 43 C-11.31 43 -13.62 43 -16 43 C-13.52316688 33.6756207 -9.88345918 24.81825819 -6.3125 15.875 C-5.69948901 14.33088028 -5.08685579 12.78661053 -4.47460938 11.2421875 C-2.98742121 7.49304831 -1.49514024 3.74597463 0 0 Z M3 7 C2.16112944 9.43572059 1.32873471 11.87333217 0.5 14.3125 C0.26152344 15.00279297 0.02304687 15.69308594 -0.22265625 16.40429688 C-1.23208263 19.38931489 -2 21.82658914 -2 25 C1.96 25 5.92 25 10 25 C8.2177429 18.88940424 6.30678315 12.9317281 4 7 C3.67 7 3.34 7 3 7 Z " fill="#FFDF00" transform="translate(290,57)"/>
<path d="M0 0 C4.02903134 2.25089491 6.5349847 4.60495409 8 9 C8.81836307 14.84545048 7.30292512 18.04032137 3.98828125 22.65234375 C-0.35449119 27.78005738 -5.41220861 32.27480574 -11 36 C-4.73 36.33 1.54 36.66 8 37 C8 38.98 8 40.96 8 43 C-1.57 43 -11.14 43 -21 43 C-19.86964981 36.21789883 -19.86964981 36.21789883 -17.125 33.25 C-16.50367188 32.57710937 -15.88234375 31.90421875 -15.2421875 31.2109375 C-11.79035945 27.80721855 -8.14242855 24.63530924 -4.453125 21.4921875 C-1.80715344 18.80408264 -0.38643643 16.49663967 1 13 C0.78892707 9.72114468 0.78892707 9.72114468 0 7 C-3.37868305 6.71474533 -6.63197103 6.5491187 -10 7 C-12.19078127 9.23204449 -12.19078127 9.23204449 -13 12 C-13.33 12.66 -13.66 13.32 -14 14 C-15.65 14 -17.3 14 -19 14 C-20.21699956 11.12345559 -20.00071999 10.00203291 -18.9375 7 C-14.33126944 -0.13222797 -8.05416008 -1.57353345 0 0 Z " fill="#FFE000" transform="translate(622,57)"/>
<path d="M0 0 C1.98 0 3.96 0 6 0 C7 1 7 1 7.11352539 4.32641602 C7.11336629 5.80225556 7.10767314 7.27810069 7.09765625 8.75390625 C7.0962413 9.52935287 7.09482635 10.3047995 7.09336853 11.10374451 C7.08775345 13.59003494 7.07519846 16.0762366 7.0625 18.5625 C7.05748694 20.24413933 7.0529237 21.92578006 7.04882812 23.60742188 C7.03862832 27.73834329 7.01905605 31.86907182 7 36 C13.6 36.33 20.2 36.66 27 37 C27 38.98 27 40.96 27 43 C18.09 43 9.18 43 0 43 C0 28.81 0 14.62 0 0 Z " fill="#FFDF00" transform="translate(243,57)"/>
<path d="M0 0 C1.98 0 3.96 0 6 0 C6 12.21 6 24.42 6 37 C12.93 37 19.86 37 27 37 C27 38.98 27 40.96 27 43 C18.09 43 9.18 43 0 43 C0 28.81 0 14.62 0 0 Z " fill="#FFDF00" transform="translate(411,57)"/>
<path d="M0 0 C2.31 0 4.62 0 7 0 C7 14.19 7 28.38 7 43 C4.69 43 2.38 43 0 43 C0 28.81 0 14.62 0 0 Z " fill="#FFDF00" transform="translate(447,57)"/>
</svg>
